<?xml version="1.0" encoding="UTF-8"?>
<svg id="Layer_2" data-name="Layer 2" xmlns="http://www.w3.org/2000/svg" viewBox="0 0 1532.81 1532.81">
  <defs>
    <style>
      .cls-1 {
        fill: #49df09;
      }

      .cls-2 {
        fill: #010401;
      }
    </style>
  </defs>
  <g id="Layer_8" data-name="Layer 8">
    <path class="cls-1" d="M1532.81,0v1532.81H0V0h1532.81ZM1045.38,729.62h-84.3c-9.59,0-21.93,23.87-14.52,32.83,40.27,52.71,77.48,108.35,119.01,160.04,16.97,21.12,32.62,45.38,57.72,15.32,42.98-51.47,79.1-116.87,121.42-169.8,26.16-53.31-56.9-35.68-85.74-38.56-25.57-250.68-272.66-415.52-515.05-335.39-20.36,6.73-79.22,26.25-72.42,53.52,1.26,5.05,36.6,57.07,41.51,62.13,4.18,4.31,13.76,8.46,19.75,8.27,12.34-.39,52.42-21.83,72.24-26.06,110.63-23.61,222.91,15.97,289.6,106.1,26.8,36.23,49.03,86.36,50.8,131.6ZM910.49,1011.65c-20.12,4.85-41.88,20.03-64.41,26.02-169.39,45.06-329.87-63.49-355.58-234.49h81.24c9.91,0,14.65-17.57,13.99-26.02-.83-10.69-22.02-39.7-29.52-50.41-24.89-35.57-71.21-105.06-99.48-133.51-7.83-7.88-13.35-12.72-25.29-10.24-15.11,3.13-50.75,60.55-62.32,75.83-13.27,17.52-86.83,108.35-86.86,121.39-.01,6.5,11.28,20.6,17.27,22.34,12.38,3.61,77.46-2.1,80.45.8,26.78,263.78,300.89,430,547.4,321.77,14.56-6.39,68.93-35.15,76.54-46.09,16.38-23.57-12.06-46.39-25.99-64.31-5.66-7.28-9.22-21.59-20.51-23.81-8.53-1.68-30.54-1.22-31.61,11.55-.94.28-2.13-.28-3.07,0-6.05,1.82-9.62,2.34-12.26,9.2Z"/>
    <path class="cls-2" d="M977.93,1014.72c13.93,17.92,42.38,40.74,25.99,64.31-7.61,10.94-61.97,39.7-76.54,46.09-246.52,108.24-520.62-57.99-547.4-321.77-2.99-2.89-68.08,2.81-80.45-.8-5.99-1.75-17.28-15.84-17.27-22.34.02-13.04,73.59-103.87,86.86-121.39,11.57-15.27,47.21-72.69,62.32-75.83,11.94-2.48,17.46,2.36,25.29,10.24,28.27,28.45,74.59,97.93,99.48,133.51,7.5,10.72,28.68,39.72,29.52,50.41.66,8.46-4.08,26.02-13.99,26.02h-81.24c25.71,170.99,186.19,279.55,355.58,234.49,22.54-6,44.29-21.17,64.41-26.02,8.46-2.04,14.35,5.4,12.26-9.2.94-.28,2.13.28,3.07,0,10.17-3.01,28.75-8.55,37.86-3.22,4.51,2.64-1.15,18.83,14.26,15.48Z"/>
    <path class="cls-2" d="M1045.38,729.62c-1.77-45.24-23.99-95.37-50.8-131.6-66.68-90.13-178.97-129.71-289.6-106.1-19.82,4.23-59.9,25.67-72.24,26.06-5.99.19-15.57-3.96-19.75-8.27-4.9-5.06-40.25-57.08-41.51-62.13-6.8-27.27,52.06-46.79,72.42-53.52,242.39-80.13,489.48,84.71,515.05,335.39,28.84,2.89,111.9-14.75,85.74,38.56-42.31,52.93-78.44,118.33-121.42,169.8-25.1,30.05-40.75,5.79-57.72-15.32-41.53-51.69-78.74-107.33-119.01-160.04-7.41-8.96,4.93-32.83,14.52-32.83h84.3Z"/>
    <path class="cls-2" d="M925.82,1002.46c1.07-12.77,23.07-13.23,31.61-11.55,11.29,2.22,14.85,16.53,20.51,23.81-15.41,3.35-9.75-12.84-14.26-15.48-9.11-5.33-27.69.21-37.86,3.22Z"/>
    <path class="cls-2" d="M922.75,1002.46c2.09,14.59-3.8,7.16-12.26,9.2,2.64-6.86,6.21-7.37,12.26-9.2Z"/>
  </g>
</svg>